<?xml version="1.0"?>
<svg xmlns="http://www.w3.org/2000/svg" viewBox="0 0 512 512" width="512" height="512" fill="#046077"><g id="outline"><path d="M216.484,416H208a8,8,0,0,0-8,8v24h-8a8,8,0,0,0-8,8v32a8,8,0,0,0,8,8H336a8,8,0,0,0,8-8V456a8,8,0,0,0-8-8h-8V424a8,8,0,0,0-8-8H309.073a113.939,113.939,0,0,1-2.342-87.217l5.527-14.368A115.626,115.626,0,0,0,313.317,234l7.653-7.653a23.843,23.843,0,0,0,7.03-16.97V133.117a24.065,24.065,0,0,0-19.293-23.534l-22.586-4.517-1.18-3.541,9.273-1.892a7.851,7.851,0,0,0,.932-.249,24.649,24.649,0,0,0,0-46.768l-7.35-2.45A38.165,38.165,0,0,0,249.889,16H232a32.036,32.036,0,0,0-32,32V88a8,8,0,0,0,8,8h4.687l13.656,13.657A7.991,7.991,0,0,0,232,112v1.223l-27.945,4.658A23.923,23.923,0,0,0,184,141.554v47.905a37.792,37.792,0,0,0,21.006,33.988l9.437,4.719a82.584,82.584,0,0,0,1.768,45.765l.081.244a123.416,123.416,0,0,1,6.122,46.948ZM328,464v16H200V464ZM298.054,306.632,281.667,323.02a111.116,111.116,0,0,1-45.05,27.354s1.92-31.233,1.966-32.721L249.49,312.2a98.007,98.007,0,0,0,51.482-63.782A99.6,99.6,0,0,1,298.054,306.632Zm-66.583-37.516-.081-.245A65.489,65.489,0,0,1,228.507,256h18.7a49.913,49.913,0,0,0,39.907-19.868,82.082,82.082,0,0,1-44.781,61.757l-4.314,2.157A139.544,139.544,0,0,0,231.471,269.116Zm4.086,98.212A127.112,127.112,0,0,0,286.5,340.373a129.754,129.754,0,0,0-3.048,20.862l-9.784,9.785a111.576,111.576,0,0,1-39.94,25.6Zm-2.909,46.557.027-.006a127.563,127.563,0,0,0,51.246-30.519A129.821,129.821,0,0,0,291.75,416H232.516ZM287.022,66.773l3.063,1.021a8.649,8.649,0,0,1,.382,16.274l-8.724,1.78A84.406,84.406,0,0,0,287.022,66.773ZM232,32h17.889A22.136,22.136,0,0,1,272,54.111a68.16,68.16,0,0,1-4.916,25.333,21.846,21.846,0,0,1-13.3-9.2l-7.125-10.687a7.994,7.994,0,0,0-3.078-2.717l-26.9-13.451A16.027,16.027,0,0,1,232,32ZM221.657,82.343A8,8,0,0,0,216,80V60.944l18.522,9.262,5.946,8.919,0,0,1.106,1.659a6.007,6.007,0,0,1-1.664,8.321h0l-4.372,2.914-.026.018-2.5,1.665Zm-9.235,88.39a24.067,24.067,0,0,0,5.9,7.549l2.864,11.458a35.134,35.134,0,0,1-.754,19.661l-1.107,3.319-7.166-3.583A21.881,21.881,0,0,1,200,189.459v-47.9a7.976,7.976,0,0,1,6.685-7.891l34.63-5.772A8,8,0,0,0,248,120V102.948l.789-.526h0a21.857,21.857,0,0,0,7.988-9.619,37.772,37.772,0,0,0,9.3,2.716l6.337,19.011a8,8,0,0,0,6.02,5.315l27.138,5.427A8.022,8.022,0,0,1,312,133.117v76.256a7.949,7.949,0,0,1-2.343,5.657L304,220.686l-2.342-2.342,0,0-7.038-7.038a40.38,40.38,0,0,1-2.518-26.718L293.5,179a21.4,21.4,0,0,0,1.35-31.465l-9.19-9.19a8,8,0,0,0-11.314,11.314l9.19,9.19A5.362,5.362,0,0,1,279.742,168H272a8,8,0,0,0,0,16h3.871a56.39,56.39,0,0,0,3.623,32.643A33.944,33.944,0,0,1,247.208,240h-18.7a65.489,65.489,0,0,1,2.883-12.871l.2-.6,4.023-12.069a51.1,51.1,0,0,0,1.1-28.6L236.246,184H240a8,8,0,0,0,0-16h-6.111a7.956,7.956,0,0,1-7.156-4.422,8.04,8.04,0,0,1,0-7.156l4.422-8.844a8,8,0,1,0-14.31-7.156l-4.423,8.845A24.117,24.117,0,0,0,212.422,170.733ZM312,432v16H216V432Z"/></g></svg>
