<svg id="Layer_1" enable-background="new 0 0 512 512" height="512" viewBox="0 0 512 512" width="512" xmlns="http://www.w3.org/2000/svg" fill="#046077"><g><path d="m497 224.933h-482c-8.284 0-15 6.716-15 15v64.267c0 121.072 99.418 207.8 207.8 207.8h96.4c121.072 0 207.8-99.418 207.8-207.8v-64.267c0-8.284-6.716-15-15-15zm-192.8 257.067h-96.4c-93.209 0-169.612-71.589-177.18-162.8h450.76c-7.554 91.047-83.811 162.8-177.18 162.8zm177.8-192.8h-452v-34.267h452z"/><path d="m497 32.133h-192.8c-8.284 0-15 6.716-15 15v10.09c-45.63-17.59-154.582-57.223-209.933-57.223-43.708 0-79.267 35.559-79.267 79.267s35.559 79.267 79.267 79.267c55.352 0 164.303-39.633 209.934-57.224v10.09c0 8.284 6.716 15 15 15h192.799c8.284 0 15-6.716 15-15v-64.267c0-8.284-6.716-15-15-15zm-417.733 96.4c-21.936 0-40.563-14.415-46.924-34.267h188.485c-48.402 16.633-107.699 34.267-141.561 34.267zm-46.924-64.266c6.361-19.852 24.987-34.267 46.924-34.267 33.862 0 93.16 17.634 141.561 34.267zm449.657 32.133h-162.8v-34.267h162.8z"/></g></svg>