<svg width="586" height="559" xmlns="http://www.w3.org/2000/svg" fill="#046077">

 <g>
  <title>background</title>
  <rect fill="none" id="canvas_background" height="402" width="582" y="-1" x="-1"/>
 </g>
 <g>
  <title>Layer 1</title>
  <path stroke="null" id="svg_1" d="m582.758721,313.024243l-30.52586,-97.157191a13.254198,13.7297 0 0 0 -0.738252,-2.614334l-61.240576,-195.27475a24.345146,25.218542 0 0 0 -23.246352,-17.197694a23.933098,24.791712 0 0 0 -22.971654,17.339971l-58.373411,186.080119l-184.236786,0l-58.459254,-186.080119a23.933098,24.791712 0 0 0 -22.868642,-17.339971l-0.137349,0a24.413821,25.289681 0 0 0 -23.177678,17.357756l-61.292081,195.50595c0,0.177846 -0.137349,0.320123 -0.188855,0.497968l-31.075257,98.900081a34.835191,36.084924 0 0 0 12.653295,40.388794l268.483353,202.086246a13.73492,14.227669 0 0 0 16.224375,-0.088923l268.534859,-201.997324a34.818023,36.06714 0 0 0 12.636127,-40.406579m-401.3172,-80.261835l74.838147,238.598001l-179.652756,-238.598001m254.181867,238.651355l71.764958,-228.74534l3.090357,-9.906014l104.900453,0l-162.535612,215.691454m119.219107,-412.015495l52.587576,167.761996l-105.260995,0m-37.822537,28.455337l-52.141191,166.214737l-31.109594,98.989004l-83.130605,-265.203741m-90.530293,-196.217333l52.690588,167.761996l-105.19232,0m-34.302963,126.217204a7.399688,7.665156 0 0 1 -2.678309,-8.589955l23.074666,-73.450339l169.231386,224.743809m331.320613,-142.703515l-189.644911,142.650161l0.63524,-0.85366l168.596146,-223.836795l23.074666,73.414769a7.399688,7.665156 0 0 1 -2.661141,8.607739"/>
 </g>
</svg>