<?xml version="1.0" encoding="utf-8"?>
<!-- Generator: Adobe Illustrator 21.1.0, SVG Export Plug-In . SVG Version: 6.00 Build 0)  -->
<svg version="1.1" id="Logo_reduced" xmlns="http://www.w3.org/2000/svg" xmlns:xlink="http://www.w3.org/1999/xlink" x="0px"
	 y="0px" viewBox="0 0 138 136.1" style="enable-background:new 0 0 138 136.1;" xml:space="preserve">
<style type="text/css">
	.st0{fill:#046077;}
	.st1{fill:#FFFFFF;}
</style>
<g>
	<path id="BG" class="st0" d="M138,113c0,12.8-10.3,23.1-23.1,23.1H23.1C10.3,136.1,0,125.7,0,113V23.1C0,10.3,10.3,0,23.1,0h91.8
		C127.7,0,138,10.3,138,23.1V113z"/>
	<g id="IJ">
		<path class="st1" d="M57.9,89.3c-0.1,0.7-0.7,1.2-1.5,1.2H45.3c-0.7,0-1.3-0.4-1.3-1.1l0.1-0.2l7.1-59.3c0.1-0.7,0.2-1,1-1.1H64
			h0.2c0.6,0,0.9,0.4,0.9,1V30L57.9,89.3z"/>
		<path class="st1" d="M86.2,91.3c-1.6,12.9-9.7,15.9-19.4,15.9c-5.7,0-6.5-0.2-8-0.4c-0.7-0.1-1.5-0.2-1.5-1.3V105l0.6-4.8
			c0.2-1.4,0.7-1.7,2-1.7c1.2-0.1,2.7-0.1,4.5-0.2c4.3-0.2,7.3-0.6,8.1-6.7L80,30c0.1-0.7,0.7-1.1,1.4-1.2L92.7,29h0.2
			c0.7,0,1,0.4,1,1L86.2,91.3z"/>
	</g>
</g>
</svg>
